:SAMPLES-PER-SECOND 30
:FULLY-SPECIFIED
:DEGREES
618
root  30.0233 36.895 -0.174772 53.1998 -85.5586 -57.9985
RightUpLeg  -22.8787 -4.18678 3.93671
RightLeg  32.0896 0.59456 0.144045
RightFoot  -4.30578 0.159614 -3.05482
RightToes  -9.31324e-010 0 -3.6325e-017
Spine  7.81626 -1.59781 12.3533
Spine1  4.26328 -0.0425677 -0.588049
HEad  4.12089 -28.4257 -12.4594
LeftShoulder1  -0.485503 4.72044 -33.7511
LeftArm  12.101 4.60849 -41.6047
LeftForeArm  21.2416 -18.8461 -5.74121
LeftHand  -0.0476664 7.21839 -0.467987
RightShoulder  -0.83522 -5.74404 30.65
RightArm  14.9879 -2.61046 41.5412
RightForeArm  14.1893 10.6354 6.71949
RightHand  -0.102828 4.47753 -1.49761
LeftUpLeg  5.92887 1.58959 6.23884
LeftLeg  52.1148 -1.16358 -1.13055
LeftFoot  5.77798 1.4609 -10.0907
LeftToes  8.61288e-010 -5.99147e-011 2.1039e-011
619
root  28.7713 36.9872 -0.305013 49.3307 -84.7119 -54.2408
RightUpLeg  -21.0204 -4.18401 4.54746
RightLeg  33.2152 -0.115159 -0.343706
RightFoot  -7.02606 0.0668364 -3.03688
RightToes  -9.31324e-010 0 -3.6325e-017
Spine  8.39061 -1.61236 13.6746
Spine1  4.24492 0.372716 -0.835769
HEad  3.67574 -29.4871 -11.314
LeftShoulder1  -0.420353 4.56437 -33.4831
LeftArm  12.2195 5.17456 -42.0776
LeftForeArm  24.6399 -18.304 -6.02977
LeftHand  -0.0686667 6.86675 -2.25836
RightShoulder  -0.859895 -5.80015 30.8218
RightArm  15.8254 -0.848342 41.9221
RightForeArm  12.652 11.4712 6.73876
RightHand  -0.130426 5.46904 -1.71731
LeftUpLeg  0.159878 0.492267 6.52224
LeftLeg  60.1059 -0.106978 0.297624
LeftFoot  11.181 1.26784 -6.55927
LeftToes  8.61288e-010 -5.99147e-011 2.1039e-011
620
root  27.4674 37.3164 -0.418487 43.6777 -85.1206 -48.7061
RightUpLeg  -18.0444 -4.34895 4.00832
RightLeg  32.3567 -0.143358 -0.359558
RightFoot  -8.9093 0.0048071 -3.05542
RightToes  -9.31324e-010 0 -3.6325e-017
Spine  8.58422 -1.24544 14.0063
Spine1  4.20623 1.08401 -2.07591
HEad  3.42415 -30.5773 -10.1493
LeftShoulder1  -0.334367 4.3517 -33.3005
LeftArm  12.5874 5.92187 -42.2382
LeftForeArm  26.0573 -17.8297 -6.36255
LeftHand  -0.05797 6.37922 -2.37379
RightShoulder  -0.87041 -5.82917 30.803
RightArm  17.4951 0.924974 42.7006
RightForeArm  11.1226 12.4287 6.8736
RightHand  -0.138334 4.73475 -1.88493
LeftUpLeg  -4.72461 0.123676 5.59544
LeftLeg  64.6561 -0.344194 -0.136872
LeftFoot  7.36366 0.790425 -5.10297
LeftToes  8.61288e-010 -5.99147e-011 2.1039e-011
621
root  26.1436 37.6499 -0.483839 39.7084 -85.7656 -44.8945
RightUpLeg  -14.764 -4.17569 3.37544
RightLeg  30.9307 -0.153465 -0.359126
RightFoot  -10.5306 -0.0498509 -3.03012
RightToes  -9.31324e-010 0 -3.6325e-017
Spine  8.49524 -0.861312 14.4313
Spine1  4.43086 1.78172 -3.29067
HEad  3.40625 -31.0561 -9.59145
LeftShoulder1  -0.33267 4.3473 -33.3017
LeftArm  12.3458 7.02267 -42.1572
LeftForeArm  25.6923 -17.5369 -6.55949
LeftHand  -0.0621876 6.73383 -1.99062
RightShoulder  -0.79126 -5.65686 30.111
RightArm  18.2677 2.4286 44.2563
RightForeArm  11.2944 13.0853 6.76653
RightHand  -0.122979 5.43096 -1.63366
LeftUpLeg  -9.01538 -0.191535 4.43686
LeftLeg  65.8888 -0.556575 -0.671548
LeftFoot  5.85467 0.712655 -4.9434
LeftToes  8.61288e-010 -5.99147e-011 2.1039e-011
622
root  24.833 37.9936 -0.533494 33.7073 -86.3781 -38.5574
RightUpLeg  -11.7468 -4.2809 2.63014
RightLeg  28.8746 0.195561 -0.13127
RightFoot  -11.7065 -0.0890204 -3.10082
RightToes  -9.31324e-010 0 -3.6325e-017
Spine  8.26939 -0.395486 14.5921
Spine1  3.91271 2.34598 -4.3446
HEad  3.50851 -31.6642 -9.45951
LeftShoulder1  -0.381761 4.46682 -33.4919
LeftArm  13.1799 8.61318 -41.6416
LeftForeArm  24.0384 -18.157 -6.22535
LeftHand  -0.0589026 6.67561 -1.67025
RightShoulder  -0.762784 -5.59581 29.803
RightArm  21.8023 3.19479 44.9131
RightForeArm  8.569 15.5899 6.34595
RightHand  -0.198023 5.32244 -2.45137
LeftUpLeg  -13.3434 -0.413071 3.28413
LeftLeg  64.2521 -0.727283 -0.997583
LeftFoot  4.49947 0.519837 -3.9366
LeftToes  8.61288e-010 -5.99147e-011 2.1039e-011
623
root  23.5105 38.3024 -0.57685 23.9303 -87.1157 -28.4343
RightUpLeg  -8.60416 -4.58529 1.68403
RightLeg  26.4548 0.717575 0.111826
RightFoot  -12.8264 -0.127448 -3.15138
RightToes  -9.31324e-010 0 -3.6325e-017
Spine  7.86929 0.153877 14.6154
Spine1  3.63184 2.96346 -5.66574
HEad  3.55307 -32.2085 -9.52779
LeftShoulder1  -0.395785 4.49654 -33.68
LeftArm  14.4276 10.0551 -40.8617
LeftForeArm  21.7643 -18.8808 -5.86761
LeftHand  -0.0374257 6.10529 -0.637256
RightShoulder  -0.750983 -5.58163 29.471
RightArm  24.5928 3.53271 45.5728
RightForeArm  6.12756 18.5141 5.48194
RightHand  -0.239589 5.66376 -2.83485
LeftUpLeg  -16.866 -0.846763 2.00661
LeftLeg  59.8391 -1.07217 -1.43623
LeftFoot  1.82425 0.416094 -3.69919
LeftToes  8.61288e-010 -5.99147e-011 2.1039e-011
624
root  22.1968 38.5394 -0.614058 9.82291 -87.9934 -14.1202
RightUpLeg  -5.40172 -5.154 0.725521
RightLeg  24.0919 1.88965 0.419554
RightFoot  -13.9042 -0.16573 -3.20123
RightToes  -9.31324e-010 0 -3.6325e-017
Spine  7.63465 0.795686 14.6568
Spine1  3.38207 3.73698 -7.26459
HEad  3.40861 -32.7608 -9.5453
LeftShoulder1  -0.311797 4.30139 -32.9635
LeftArm  13.7776 11.6316 -41.002
LeftForeArm  22.3236 -19.1429 -5.62398
LeftHand  -0.0641596 7.02799 -1.57669
RightShoulder  -0.837973 -5.79044 30.0292
RightArm  26.8743 3.93416 45.2676
RightForeArm  4.28659 21.8088 4.79635
RightHand  -0.177165 5.59341 -2.19142
LeftUpLeg  -19.1888 -0.705718 1.06361
LeftLeg  52.6622 -1.39976 -1.52421
LeftFoot  -0.0268417 0.334385 -3.37895
LeftToes  8.61288e-010 -5.99147e-011 2.1039e-011
625
root  20.8808 38.7307 -0.633049 -20.3299 -88.7737 16.2295
RightUpLeg  -2.18314 -6.02715 -0.381566
RightLeg  21.7298 3.65548 0.725901
RightFoot  -14.7961 -0.202729 -3.40615
RightToes  -9.31324e-010 0 -3.6325e-017
Spine  7.56688 1.30496 13.9955
Spine1  3.03698 4.13579 -8.00164
HEad  3.07471 -32.6933 -9.52559
LeftShoulder1  -0.391036 4.49528 -33.3023
LeftArm  14.6231 12.869 -40.0975
LeftForeArm  21.2813 -19.6513 -5.36715
LeftHand  -0.100723 8.0844 -2.29701
RightShoulder  -0.793225 -5.68473 29.7344
RightArm  27.2051 4.29751 45.6376
RightForeArm  4.56484 24.2785 4.91611
RightHand  -0.188899 5.80238 -2.2828
LeftUpLeg  -20.2575 -0.0569739 0.240227
LeftLeg  42.77 -1.35994 -0.978984
LeftFoot  -1.0399 0.311239 -3.38672
LeftToes  8.61288e-010 -5.99147e-011 2.1039e-011
626
root  19.5669 38.8757 -0.642312 -64.1797 -88.9898 60.3836
RightUpLeg  1.11465 -6.89794 -1.23354
RightLeg  18.8475 5.2957 0.831968
RightFoot  -15.3349 -0.229949 -3.62138
RightToes  -9.31324e-010 0 -3.6325e-017
Spine  7.05476 1.73628 13.6014
Spine1  3.21382 4.50763 -9.02103
HEad  2.61725 -32.5842 -9.54276
LeftShoulder1  -0.399621 4.51786 -33.2681
LeftArm  14.1664 13.8626 -39.6684
LeftForeArm  21.516 -19.2598 -5.58762
LeftHand  -0.0767347 7.77481 -1.56475
RightShoulder  -0.807554 -5.71923 29.8199
RightArm  27.3886 4.98532 45.8554
RightForeArm  5.40139 26.0642 5.31444
RightHand  -0.204953 6.57096 -2.33221
LeftUpLeg  -20.1778 0.87382 -0.145154
LeftLeg  30.4487 -1.12562 -0.369727
LeftFoot  -0.688754 0.359068 -3.79245
LeftToes  8.61288e-010 -5.99147e-011 2.1039e-011
627
root  18.2734 38.9494 -0.653273 -108.534 -88.8627 105.125
RightUpLeg  4.224 -7.43023 -1.91842
RightLeg  16.0402 6.73423 0.884405
RightFoot  -15.8354 -0.24963 -3.63555
RightToes  -9.31324e-010 0 -3.6325e-017
Spine  6.57602 2.1534 13.0945
Spine1  3.40717 4.8705 -9.75353
HEad  1.99093 -32.3591 -9.33797
LeftShoulder1  -0.349697 4.39014 -33.3162
LeftArm  12.4837 14.8442 -39.2462
LeftForeArm  22.4899 -18.4175 -5.99861
LeftHand  -0.0800047 7.7998 -1.69425
RightShoulder  -0.810028 -5.72581 29.8242
RightArm  28.1908 5.53196 45.9623
RightForeArm  5.73948 27.4392 5.61096
RightHand  -0.214107 7.02076 -2.35426
LeftUpLeg  -19.2795 1.9333 -0.249782
LeftLeg  16.7372 -1.24398 -0.101067
LeftFoot  0.052987 0.46486 -4.66747
LeftToes  8.61288e-010 -5.99147e-011 2.1039e-011
628
root  16.9624 38.9482 -0.626459 -122.49 -88.6475 119.267
RightUpLeg  7.68056 -7.9157 -2.60425
RightLeg  13.0993 7.74716 0.866583
RightFoot  -16.3446 -0.254262 -3.28649
RightToes  -9.31324e-010 0 -3.6325e-017
Spine  6.2205 2.18415 12.2244
Spine1  3.59141 4.81542 -9.941
HEad  1.74343 -31.5182 -8.89562
LeftShoulder1  -0.381204 4.47238 -33.2132
LeftArm  9.14553 15.889 -39.2238
LeftForeArm  25.7051 -16.8644 -6.65401
LeftHand  -0.0901247 7.61833 -2.35231
RightShoulder  -0.775839 -5.63376 29.7777
RightArm  30.253 6.41479 46.4971
RightForeArm  5.13495 27.049 5.55369
RightHand  -0.228195 6.83623 -2.51152
LeftUpLeg  -18.1364 1.86117 -0.115456
LeftLeg  4.39818 -1.25901 -0.214379
LeftFoot  -0.549886 0.480067 -5.05009
LeftToes  8.61288e-010 -5.99147e-011 2.1039e-011
629
root  15.5939 38.786 -0.564824 -129.54 -88.7072 126.118
RightUpLeg  11.0599 -8.22246 -3.19506
RightLeg  11.4874 8.35101 0.874692
RightFoot  -17.5121 -0.274499 -2.89385
RightToes  -9.31324e-010 0 -3.6325e-017
Spine  5.97134 2.15588 11.0272
Spine1  3.92821 4.57986 -9.23516
HEad  1.89347 -31.2077 -9.2039
LeftShoulder1  -0.389563 4.48848 -33.4185
LeftArm  6.52062 16.555 -38.8985
LeftForeArm  27.8945 -14.9784 -7.52236
LeftHand  -0.0981538 7.96019 -2.32141
RightShoulder  -0.778753 -5.64301 29.7608
RightArm  32.7544 7.07296 46.9437
RightForeArm  4.24357 26.0066 5.35358
RightHand  -0.185174 6.60049 -2.1368
LeftUpLeg  -17.4622 2.34898 0.0212502
LeftLeg  -3.17521 2.01071 -0.974243
LeftFoot  -1.21127 0.62776 -7.00984
LeftToes  8.61288e-010 -5.99147e-011 2.1039e-011
